<svg xmlns="http://www.w3.org/2000/svg" xml:space="preserve" width="2048" height="2048" style="shape-rendering:geometricPrecision;text-rendering:geometricPrecision;image-rendering:optimizeQuality;fill-rule:evenodd;clip-rule:evenodd"><defs><style>.fil0{fill:none}.fil2{fill:#5d4037}.fil4{fill:#e53935;fill-rule:nonzero}</style></defs><g id="Layer_x0020_1"><path class="fil0" d="M0 0h2048v2048H0z"/><path class="fil0" d="M255.999 255.999h1536v1536h-1536z"/><path class="fil0" d="M0 0h2048v2048H0z"/><path class="fil0" d="M255.999 255.999h1536v1536h-1536z"/><path class="fil0" d="M0 0h2048v2048H0z"/><path class="fil0" d="M255.999 255.999h1536v1536h-1536z"/><g id="_394708992"><path id="_392337184" d="M1023.79 547.619c331.451 0 600.143 268.694 600.143 600.145 0 331.451-268.693 600.143-600.143 600.143-331.451 0-600.143-268.693-600.143-600.143 0-331.451 268.693-600.145 600.143-600.145z" style="fill:#ffd54f"/><path id="_392337016" class="fil2" d="M1223.82 872.696c34.526 0 62.515 27.99 62.515 62.516 0 34.527-27.989 62.516-62.515 62.516-34.527 0-62.516-27.989-62.516-62.516 0-34.526 27.989-62.516 62.516-62.516z"/><path id="_392336896" class="fil2" d="M823.759 872.696c-34.527 0-62.516 27.99-62.516 62.516 0 34.527 27.989 62.516 62.516 62.516s62.516-27.989 62.516-62.516c0-34.526-27.989-62.516-62.516-62.516z"/><path id="_392336584" class="fil2" d="M1346.32 1328.38c-33.26 57.605-80.624 104.154-136.3 136.299-55.801 32.218-119.837 50.002-186.3 50.002-66.462 0-130.498-17.784-186.3-50.002-55.676-32.145-103.041-78.695-136.3-136.299l51.79-29.997a312.669 312.669 0 0 0 114.507 114.507c46.648 26.931 100.367 41.798 156.304 41.798s109.657-14.867 156.304-41.798a312.666 312.666 0 0 0 114.507-114.506l51.79 29.996z"/><g><path id="_392336512" d="M310.227 955.159c26.805-309.966 210.092-509.585 436.996-599.736 99.255-39.436 206.809-57.765 313.123-55.071 106.592 2.7 212.046 26.459 306.788 71.188 207.682 98.048 364.191 295.852 370.236 592.435l-61.126 1.198c-5.5-269.844-147.21-449.49-335.238-538.261-87.082-41.112-184.049-62.95-282.098-65.436-98.328-2.49-197.653 14.403-289.153 50.757C562.963 494.394 395.88 676.8 371.352 960.431l-61.125-5.273z" style="fill:#ef5350;fill-rule:nonzero"/><path id="_392336416" class="fil4" d="M1706.86 932.741c30.894 0 54.755 30.993 68.353 81.098 10.37 38.211 16.784 90.464 16.784 147.696 0 57.23-6.414 109.485-16.784 147.695-13.598 50.106-37.459 81.1-68.353 81.1-30.895 0-54.755-30.994-68.354-81.101-10.369-38.21-16.785-90.463-16.785-147.693 0-57.232 6.416-109.484 16.785-147.695 13.6-50.106 37.459-81.1 68.354-81.1z"/><path id="_392336296" class="fil4" d="M341.139 932.741c30.892 0 54.754 30.993 68.353 81.1 10.369 38.21 16.784 90.462 16.784 147.694 0 57.23-6.415 109.484-16.784 147.693-13.6 50.107-37.461 81.1-68.353 81.1-30.896 0-54.756-30.992-68.354-81.1-10.37-38.21-16.785-90.463-16.785-147.693 0-57.231 6.415-109.484 16.785-147.695 13.598-50.106 37.458-81.099 68.354-81.099z"/></g></g></g></svg>